<?xml version="1.0" standalone="no"?>
<!DOCTYPE svg PUBLIC "-//W3C//DTD SVG 20010904//EN"
 "http://www.w3.org/TR/2001/REC-SVG-20010904/DTD/svg10.dtd">
<svg version="1.0" xmlns="http://www.w3.org/2000/svg"
 width="299.000000pt" height="299.000000pt" viewBox="0 0 299.000000 299.000000"
 preserveAspectRatio="xMidYMid meet">

<g transform="translate(0.000000,299.000000) scale(0.100000,-0.100000)"
fill="#000000" stroke="none">
<path d="M976 2934 c-55 -17 -111 -51 -142 -85 -12 -13 -69 -96 -126 -184 -58
-88 -171 -261 -253 -385 -300 -455 -357 -543 -373 -584 -15 -37 -17 -107 -17
-741 l0 -700 26 -55 c33 -70 89 -126 159 -159 l55 -26 760 0 760 0 60 28 c52
24 114 82 487 455 373 373 431 435 455 487 l28 60 0 830 0 830 -26 55 c-34 71
-89 126 -158 159 l-56 26 -795 2 c-685 2 -802 0 -844 -13z m649 -478 c66 -17
124 -48 157 -83 35 -37 76 -126 83 -183 10 -72 18 -79 26 -22 17 127 94 224
217 274 53 21 71 23 242 22 125 -1 201 -6 235 -15 l50 -14 3 -181 2 -181 -155
5 -155 5 0 -33 0 -32 155 4 155 3 0 -177 0 -177 -37 -10 c-21 -6 -92 -15 -158
-21 -204 -19 -348 11 -439 91 -54 48 -105 145 -115 221 -8 57 -8 57 -32 -52
-40 -185 -174 -269 -431 -270 -95 0 -215 18 -270 42 -63 27 -130 100 -158 174
-32 81 -40 287 -15 379 35 132 116 206 260 238 49 11 332 6 380 -7z"/>
<path d="M1401 2106 c-8 -9 -11 -43 -9 -98 3 -83 3 -83 31 -86 l28 -3 -3 98
c-2 80 -6 98 -19 101 -9 1 -21 -4 -28 -12z"/>
</g>
</svg>
