<?xml version="1.0" standalone="no"?>
<!DOCTYPE svg PUBLIC "-//W3C//DTD SVG 20010904//EN"
 "http://www.w3.org/TR/2001/REC-SVG-20010904/DTD/svg10.dtd">
<svg version="1.0" xmlns="http://www.w3.org/2000/svg"
 width="32.000000pt" height="32.000000pt" viewBox="0 0 32.000000 32.000000"
 preserveAspectRatio="xMidYMid meet">

<g transform="translate(0.000000,32.000000) scale(0.100000,-0.100000)"
fill="#000000" stroke="none">
<path d="M51 247 c-39 -61 -41 -67 -41 -143 0 -49 5 -85 12 -92 7 -7 43 -12
93 -12 l81 0 52 53 53 53 -3 100 -3 99 -101 3 -101 3 -42 -64z m137 11 c8 -8
15 -8 26 1 8 7 27 11 43 9 26 -3 28 -6 28 -48 0 -42 -2 -45 -28 -48 -16 -2
-35 2 -43 9 -11 9 -18 9 -26 1 -16 -16 -61 -15 -76 0 -15 15 -15 61 0 76 15
15 60 16 76 0z"/>
</g>
</svg>
